<svg width="908" height="716" viewBox="0 0 908 716" fill="none" xmlns="http://www.w3.org/2000/svg">
<path d="M861 342.802L844.475 404.83L831.061 455.15L820.37 495.283L806.964 545.603L763.157 710L220.331 500.668L180.43 485.278L129.923 465.798L90.0078 450.408L42 431.892L69.2164 398.846L91.8487 371.367L120.48 336.601L143.106 309.139L397.717 0L667.436 199.579L715.466 235.118L753.764 263.457L801.802 298.995L861 342.802Z" fill="#F2F2F2"/>
<path d="M174.048 525.43C144.34 508.538 125.847 485.476 119.08 456.886C114.055 435.658 115.499 411.771 123.371 385.887C129.206 366.804 137.955 348.778 149.296 332.474C209.458 245.614 214.888 189.016 208.849 156.831C202.228 121.541 180.716 106.884 180.5 106.74L181.428 105.284C181.65 105.431 203.729 120.428 210.509 156.434C214.418 177.192 212.579 200.861 205.043 226.784C195.665 259.046 177.377 294.943 150.687 333.477C139.45 349.632 130.78 367.492 124.998 386.401C112.087 428.853 110.261 487.171 174.877 523.913L174.048 525.43Z" fill="#2F2E41"/>
<path d="M188.333 525.43C218.041 508.538 236.534 485.476 243.301 456.886C248.326 435.658 246.882 411.771 239.01 385.887C233.175 366.804 224.426 348.778 213.085 332.474C152.923 245.614 147.493 189.016 153.532 156.831C160.153 121.541 181.665 106.884 181.881 106.74L180.953 105.284C180.73 105.431 158.652 120.428 151.872 156.434C147.963 177.192 149.802 200.861 157.337 226.784C166.716 259.046 185.004 294.943 211.694 333.477C222.931 349.632 231.601 367.492 237.383 386.401C250.294 428.853 252.12 487.171 187.504 523.913L188.333 525.43Z" fill="#2F2E41"/>
<path d="M835.817 452.457C806.11 435.565 787.616 412.504 780.849 383.913C775.824 362.685 777.268 338.798 785.14 312.915C790.975 293.831 799.724 275.805 811.065 259.502C871.227 172.642 876.657 116.043 870.618 83.858C863.997 48.568 842.486 33.9116 842.269 33.7678L843.198 32.3112C843.42 32.4584 865.498 47.4553 872.279 83.4614C876.187 104.219 874.348 127.888 866.813 153.811C857.434 186.074 839.146 221.97 812.456 260.505C801.219 276.659 792.549 294.52 786.767 313.429C773.856 355.881 772.03 414.198 836.646 450.94L835.817 452.457Z" fill="#2F2E41"/>
<path d="M850.103 452.457C879.81 435.566 898.303 412.504 905.07 383.913C910.095 362.685 908.651 338.798 900.779 312.915C894.944 293.831 886.195 275.805 874.855 259.502C814.692 172.642 809.262 116.043 815.301 83.858C821.922 48.568 843.434 33.9116 843.65 33.7678L842.722 32.3112C842.5 32.4584 820.421 47.4553 813.641 83.4614C809.732 104.219 811.571 127.888 819.107 153.811C828.485 186.074 846.774 221.97 873.463 260.505C884.7 276.659 893.37 294.52 899.153 313.429C912.063 355.881 913.889 414.198 849.273 450.94L850.103 452.457Z" fill="#2F2E41"/>
<path d="M398.437 260.568C376.117 222.1 331.958 220.307 331.958 220.307C331.958 220.307 288.927 214.695 261.323 273.282C235.594 327.891 200.085 380.617 255.607 393.4L265.635 361.562L271.846 395.77C279.751 396.35 287.682 396.488 295.602 396.184C355.061 394.226 411.686 396.757 409.863 374.994C407.439 346.064 419.914 297.583 398.437 260.568Z" fill="#2F2E41"/>
<path d="M306.822 341.079C314.513 358.432 319.363 379.117 322.259 402.093L384.006 398.156C369.81 377.638 365.096 354.088 370.499 327.302L306.822 341.079Z" fill="#FFB8B8"/>
<path opacity="0.2" d="M306.822 341.079C314.513 358.432 319.363 379.117 322.259 402.093L384.006 398.156C369.81 377.638 365.096 354.088 370.499 327.302L306.822 341.079Z" fill="black"/>
<path d="M20.3319 671.473C20.3319 671.473 -11.6262 688.933 4.59082 703.84C20.8079 718.747 42.2298 684.108 42.2298 684.108L20.3319 671.473Z" fill="#FFB8B8"/>
<path d="M411.022 620.557L410.523 644.411L409.457 695.952V695.961L409.147 710.887H204.781L213.086 663.845L213.095 663.81L220.532 621.706L223.851 602.85V602.842L391.727 579.224L411.022 620.557Z" fill="#2F2E41"/>
<path d="M411.02 620.56L410.519 644.414C351.125 642.859 259.064 628.236 220.53 621.701L223.849 602.846L391.724 579.228L411.02 620.56Z" fill="#3F3D56"/>
<path d="M336.731 357.809C363.373 357.809 384.971 335.779 384.971 308.604C384.971 281.43 363.373 259.4 336.731 259.4C310.088 259.4 288.49 281.43 288.49 308.604C288.49 335.779 310.088 357.809 336.731 357.809Z" fill="#FFB8B8"/>
<path d="M429.352 647.13C429.352 647.13 435.14 700.271 400.408 696.335L394.619 643.194L363.745 611.703L276.913 609.735L213.236 670.748C213.236 670.748 211.306 607.767 219.025 601.862C226.743 595.958 244.11 582.181 244.11 582.181V572.34L192.01 464.09C192.01 464.09 222.884 399.14 247.969 397.172L280.772 395.204C280.772 395.204 292.35 389.3 292.35 387.331C292.35 385.363 290.42 369.618 300.068 373.554C300.068 373.554 300.936 353.361 311.105 359.521C311.105 359.521 343.118 385.107 375.612 360.643C375.612 360.643 390.76 357.809 388.83 365.681C386.9 373.554 388.83 379.459 392.689 379.459C396.548 379.459 413.915 385.363 413.915 389.3C413.915 390.146 415.169 398.294 417.137 410.556V410.576C424.296 455.273 440.929 554.626 440.929 554.626C440.929 554.626 458.296 580.212 429.352 647.13Z" fill="#00B0FF"/>
<path d="M205.517 454.249L192.01 464.09L68.5155 625.48L2.90897 678.621C2.90897 678.621 39.5715 672.717 31.8531 704.207L257.617 572.34L205.517 454.249Z" fill="#00B0FF"/>
<path d="M417.137 410.556V410.576C414.571 425.967 330.942 422.758 319.364 422.758C307.787 422.758 298.138 420.79 286.561 412.918C274.983 405.045 280.772 395.204 280.772 395.204C280.772 395.204 290.63 387.546 290.63 385.577C290.63 383.609 288.7 367.864 298.348 371.8C298.348 371.8 299.217 351.607 309.386 357.767C309.386 357.767 343.118 385.107 375.612 360.643C375.612 360.643 390.76 357.809 388.83 365.681C386.9 373.554 388.83 379.459 392.689 379.459C396.548 379.459 413.915 385.363 413.915 389.3C413.915 390.146 415.169 398.294 417.137 410.556Z" fill="#3F3D56"/>
<path d="M407.161 337.143C407.161 337.143 391.724 303.684 376.287 319.429C360.851 335.175 393.654 358.793 393.654 358.793L407.161 337.143Z" fill="#FFB8B8"/>
<path d="M407.161 329.27C407.161 329.27 383.324 359.997 375.947 362.347C375.947 362.347 397.513 449.329 424.528 472.947L439.964 553.642C439.964 553.642 505.571 526.088 490.134 480.82C489.98 480.367 489.826 479.917 489.673 479.47C476.784 441.771 458.996 406.006 436.784 373.131L407.161 329.27Z" fill="#00B0FF"/>
<path opacity="0.2" d="M394.423 420.403L441.894 553.642L424.528 472.947L394.423 420.403Z" fill="black"/>
<path d="M388.569 256.86L344.942 233.551L284.695 243.087L272.23 299.24L303.259 298.023L311.928 277.392V297.683L326.245 297.121L334.555 264.276L339.748 299.24L390.647 298.181L388.569 256.86Z" fill="#2F2E41"/>
<path d="M800.706 559.75L825.458 649.811C825.458 649.811 820.357 729.583 844.16 713.976C868.518 698.004 859.462 630.735 859.462 630.735L845.194 549.938L800.706 559.75Z" fill="#A0616A"/>
<path d="M813.932 307.106L834.373 327.955V427.296C834.373 427.296 846.397 445.692 843.992 450.598C841.587 455.504 839.182 455.504 841.587 459.183C843.992 462.862 846.397 465.315 843.992 467.768C841.587 470.221 841.587 476.353 843.992 478.806C846.397 481.259 851.206 484.938 847.599 488.617C843.992 492.296 839.182 489.844 843.992 503.334C848.801 516.825 857.218 520.504 854.813 525.41C852.409 530.316 852.409 542.58 852.409 542.58L800.706 549.938L789.884 411.352L813.932 307.106Z" fill="#D0CDE1"/>
<path d="M854.813 541.353L794.694 543.807L797.098 569.562L850.004 559.75L854.813 541.353Z" fill="#3F3D56"/>
<path d="M689.484 178.944L682.27 252.53L755.616 263.568L761.027 221.256L766.438 178.944H689.484Z" fill="#A0616A"/>
<path opacity="0.1" d="M689.484 178.546L682.27 252.132L755.616 263.17L761.027 220.858L766.438 178.546H689.484Z" fill="black"/>
<path d="M530.167 529.089L571.048 618.618C571.048 618.618 578.263 660.317 589.084 661.543C599.906 662.77 610.727 618.618 610.727 618.618L596.299 595.316L579.465 529.089H530.167Z" fill="#A0616A"/>
<path d="M810.012 711.755H578.888C580.72 682.21 581.872 663.995 581.872 663.995L584.941 659.066L599.825 635.212L610.452 618.181L614.158 612.235L615.533 610.033L630.09 607.324L780.263 579.374C782.747 590.718 786.262 601.801 790.761 612.48C791.784 614.857 792.885 617.234 794.063 619.584C797.837 627.1 802.446 634.221 807.923 639.465C809.17 640.658 810.073 643.841 810.657 648.735C812.102 660.723 811.689 683.017 810.012 711.755Z" fill="#2F2E41"/>
<path d="M729.764 202.86C761.639 202.86 787.479 176.503 787.479 143.991C787.479 111.479 761.639 85.1226 729.764 85.1226C697.889 85.1226 672.049 111.479 672.049 143.991C672.049 176.503 697.889 202.86 729.764 202.86Z" fill="#A0616A"/>
<path d="M601.108 264.181L592.692 259.275C592.692 259.275 555.417 285.03 543.393 342.672C531.369 400.314 522.953 415.032 522.953 415.032C522.953 415.032 510.929 417.484 519.346 426.069C527.762 434.654 527.762 433.428 520.548 438.334C513.334 443.239 508.524 433.428 513.334 443.239C518.143 453.051 524.155 450.598 519.346 456.73C514.536 462.862 506.119 462.862 510.929 467.768C515.738 472.674 506.119 483.711 512.131 488.617C518.143 493.523 520.548 494.749 520.548 503.334C520.511 508.345 521.325 513.324 522.953 518.051H585.477C585.477 518.051 573.453 494.749 577.06 489.844C580.668 484.938 581.87 480.032 579.465 477.579C577.06 475.126 569.846 480.032 577.06 473.9C584.275 467.768 586.68 471.447 584.275 464.089C581.87 456.73 577.06 460.409 581.87 456.73C586.68 453.051 590.287 454.277 587.882 450.598C585.477 446.919 580.668 446.919 585.477 444.466C590.287 442.013 593.894 444.466 592.692 438.334C591.489 432.201 590.287 434.654 592.692 432.201C595.096 429.749 620.347 346.352 620.347 343.899C620.347 341.446 601.108 264.181 601.108 264.181Z" fill="#D0CDE1"/>
<path d="M589.084 513.146L513.334 518.052L532.572 536.448L585.477 537.674L589.084 513.146Z" fill="#3F3D56"/>
<path d="M610.727 605.128L595.096 634.562C595.096 634.562 641.99 640.694 658.823 646.826C675.657 652.958 718.943 661.543 718.943 661.543L729.764 618.618L610.727 605.128Z" fill="#3F3D56"/>
<path d="M747.8 618.618L761.027 659.09L813.932 648.052L807.92 610.034L747.8 618.618Z" fill="#3F3D56"/>
<path d="M769.443 222.482C769.443 222.482 765.836 220.03 757.419 224.935C749.003 229.841 721.348 232.294 708.121 217.577C694.895 202.86 685.276 190.595 681.669 193.048C678.062 195.501 675.657 223.709 675.657 223.709L663.633 233.52L592.692 259.275L598.703 424.843L609.525 462.862C609.525 462.862 601.108 492.296 611.93 509.466C622.751 526.636 605.918 532.769 605.918 532.769C605.918 532.769 602.311 537.674 604.715 549.938C607.12 562.203 602.311 607.581 602.311 607.581C602.311 607.581 704.514 654.185 811.527 613.713L799.503 567.108L793.491 462.862C793.491 462.862 799.503 445.692 798.301 438.334C797.098 430.975 834.373 327.955 834.373 327.955C834.373 327.955 828.361 276.445 797.098 265.407C765.836 254.37 761.027 243.332 761.027 243.332C761.027 243.332 775.455 227.388 769.443 222.482Z" fill="#D0CDE1"/>
<path d="M671.649 151.532C671.649 151.532 665.656 142.362 667.961 132.487C669.338 126.881 669.882 121.095 669.575 115.323C669.575 115.323 674.415 99.335 679.256 90.4004C684.097 81.4657 681.792 77.7038 697.006 74.8823C712.22 72.0608 705.996 51.8403 746.106 73.7067C747.459 75.6339 749.341 77.109 751.516 77.9459C753.69 78.7828 756.059 78.944 758.323 78.4091C766.621 76.7633 769.618 88.5194 769.618 88.5194C769.618 88.5194 775.15 85.2277 777.225 89.9301C779.3 94.6326 794.092 87.1078 794.092 118.849C794.092 150.591 777.259 178.944 777.259 178.944C777.259 178.944 778.493 125.551 751.062 120.143C723.63 114.736 694.125 98.9824 686.979 119.203C679.833 139.423 671.649 151.532 671.649 151.532Z" fill="#2F2E41"/>
<path d="M777.86 164.227C780.848 164.227 783.271 160.933 783.271 156.869C783.271 152.805 780.848 149.51 777.86 149.51C774.872 149.51 772.449 152.805 772.449 156.869C772.449 160.933 774.872 164.227 777.86 164.227Z" fill="#A0616A"/>
<path d="M410.983 238.251V267.253M410.983 296.254V267.253M410.983 267.253H560.551V238.251V296.254" stroke="black"/>
<path d="M470.113 235.988H471.977V253.519H469.902V238.156C469.113 238.672 468.149 239.113 467.008 239.48V237.523C467.133 237.468 467.387 237.359 467.77 237.195C468.152 237.031 468.438 236.906 468.625 236.82C468.82 236.734 469.063 236.613 469.352 236.457C469.641 236.3 469.895 236.144 470.113 235.988ZM491.91 253.519V246.828C491.91 246.203 491.895 245.679 491.863 245.257C491.84 244.836 491.777 244.406 491.676 243.968C491.582 243.531 491.445 243.187 491.266 242.937C491.094 242.679 490.852 242.472 490.539 242.316C490.227 242.152 489.852 242.07 489.414 242.07C488.555 242.07 487.82 242.3 487.211 242.761C486.609 243.222 486.18 243.871 485.922 244.707C485.852 245.269 485.817 245.871 485.817 246.511V253.519H483.859V246.617C483.859 246.039 483.84 245.539 483.801 245.117C483.762 244.687 483.688 244.273 483.578 243.875C483.469 243.468 483.32 243.14 483.133 242.89C482.953 242.64 482.711 242.441 482.406 242.293C482.102 242.144 481.738 242.07 481.317 242.07C480.379 242.07 479.59 242.308 478.949 242.785C478.317 243.261 477.891 243.894 477.672 244.683C477.602 245.285 477.567 245.937 477.567 246.64V253.519H475.609C475.594 245.48 475.586 241.195 475.586 240.664H477.227L477.473 242.504C477.863 241.91 478.418 241.41 479.137 241.004C479.856 240.597 480.672 240.394 481.586 240.394C482.063 240.394 482.5 240.445 482.899 240.547C483.305 240.64 483.641 240.761 483.906 240.91C484.18 241.058 484.422 241.238 484.633 241.449C484.844 241.652 485.008 241.855 485.125 242.058C485.242 242.254 485.34 242.461 485.418 242.679C486.356 241.156 487.789 240.394 489.719 240.394C491.149 240.394 492.195 240.804 492.859 241.625C493.531 242.437 493.867 243.644 493.867 245.246V253.519H491.91Z" fill="black"/>
</svg>
